<svg xmlns="http://www.w3.org/2000/svg" xmlns:svg="http://www.w3.org/2000/svg" xmlns:xlink="http://www.w3.org/1999/xlink" id="svg2" width="48" height="48" version="1.1" viewBox="0 0 13.547 13.547"><metadata id="metadata22"/><defs id="defs4"><linearGradient id="0"><stop id="stop7" stop-color="#215987"/><stop id="stop9" offset="1" stop-color="#628fb9"/></linearGradient><linearGradient id="1" x2="0" y1="279.1" y2="268.33" gradientTransform="matrix(1.10525,0,0,1.10525,-134.27874,-295.76183)" gradientUnits="userSpaceOnUse" xlink:href="#0"/></defs><rect id="rect12" width="12.982" height="12.982" x=".282" y=".282" fill="#fff" fill-rule="evenodd" opacity=".5" rx="6.491"/><rect id="rect14" width="11.853" height="11.853" x=".847" y=".847" fill="#2c5aa0" fill-opacity="1" fill-rule="evenodd" rx="5.926"/><g id="g2996" fill="#f9f9f9" fill-opacity="1" transform="matrix(0.08735814,0,0,0.0875151,-38.284934,-33.658789)"><path id="path2986" fill="#f9f9f9" fill-opacity="1" stroke="none" d="m 459.72266,433.3739 c 0,0 26.45702,-7.69922 60.3164,-34.12891 0,0 -3.79687,39.46875 -65.30468,77.97266 -6.05981,-25.35911 4.98828,-43.84375 4.98828,-43.84375 z"/><path id="path2988" fill="#f9f9f9" fill-opacity="1" stroke="none" d="m 480.35157,513.90514 c 0,0 39.81428,-44.76506 52.06249,-112.55469 0,0 25.93043,50.46443 -5.8789,122.51172 -27.36129,4.59198 -46.18359,-9.95703 -46.18359,-9.95703 z"/><path id="path2990" fill="#f9f9f9" fill-opacity="1" stroke="none" d="m 566.07704,499.55008 c 0,0 4.31939,-43.9382 -17.90294,-91.44098 24.98855,13.51429 44.15031,55.40677 17.90294,91.44098 z"/></g></svg>